<svg width="28" height="28" viewBox="0 0 28 28" fill="none" xmlns="http://www.w3.org/2000/svg">
<path d="M11.2479 7.70912C11.6396 7.31971 11.6414 6.68655 11.252 6.29491C10.8626 5.90328 10.2294 5.90147 9.83777 6.29088L11.2479 7.70912ZM3 14.5L2.29491 13.7909C2.10614 13.9786 2 14.2338 2 14.5C2 14.7662 2.10614 15.0214 2.29491 15.2091L3 14.5ZM9.83777 22.7091C10.2294 23.0985 10.8626 23.0967 11.252 22.7051C11.6414 22.3135 11.6396 21.6803 11.2479 21.2909L9.83777 22.7091ZM25 15.5C25.5523 15.5 26 15.0523 26 14.5C26 13.9477 25.5523 13.5 25 13.5V15.5ZM9.83777 6.29088L2.29491 13.7909L3.70509 15.2091L11.2479 7.70912L9.83777 6.29088ZM2.29491 15.2091L9.83777 22.7091L11.2479 21.2909L3.70509 13.7909L2.29491 15.2091ZM3 15.5H25V13.5H3V15.5Z" fill="black"/>
</svg>
