<svg width="24" height="24" viewBox="0 0 24 24" fill="none" xmlns="http://www.w3.org/2000/svg">
<g id="i-edit-24-white">
<g id="Rectangle 2">
<mask id="path-1-inside-1" fill="white">
<path d="M15.7553 4.15242C16.1458 3.7619 16.779 3.7619 17.1695 4.15242L20.0777 7.06059C20.4682 7.45112 20.4682 8.08428 20.0777 8.4748L9.55388 18.9986C9.16335 19.3891 8.53019 19.3891 8.13966 18.9986L5.23149 16.0904C4.84097 15.6999 4.84097 15.0667 5.23149 14.6762L15.7553 4.15242Z"/>
</mask>
<path d="M15.7553 4.15242C16.1458 3.7619 16.779 3.7619 17.1695 4.15242L20.0777 7.06059C20.4682 7.45112 20.4682 8.08428 20.0777 8.4748L9.55388 18.9986C9.16335 19.3891 8.53019 19.3891 8.13966 18.9986L5.23149 16.0904C4.84097 15.6999 4.84097 15.0667 5.23149 14.6762L15.7553 4.15242Z" stroke="white" stroke-width="4" stroke-linecap="round" stroke-linejoin="round" mask="url(#path-1-inside-1)"/>
</g>
<path id="Polygon 1" d="M4.79021 20.6897C3.99165 20.9385 3.59237 21.0628 3.37867 20.8491C3.16497 20.6354 3.28933 20.2361 3.53806 19.4376L4.43498 16.558C4.6549 15.852 4.76485 15.4989 5.03867 15.4314C5.3125 15.3639 5.57395 15.6254 6.09685 16.1483L8.07951 18.1309C8.60241 18.6538 8.86386 18.9153 8.79635 19.1891C8.72884 19.4629 8.37582 19.5729 7.66978 19.7928L4.79021 20.6897Z" fill="white"/>
</g>
</svg>
