<svg width="28" height="28" viewBox="0 0 28 28" fill="none" xmlns="http://www.w3.org/2000/svg">
<g id="i-edit">
<path id="Union" fill-rule="evenodd" clip-rule="evenodd" d="M9.85394 17.2831L19.8818 7.25518L21.7083 9.08163L11.6804 19.1095L9.85394 17.2831ZM19.1747 5.13387C19.5653 4.74334 20.1984 4.74334 20.5889 5.13386L23.8296 8.37453C24.2201 8.76505 24.2201 9.39822 23.8296 9.78874L12.3875 21.2309C12.0584 21.5599 11.5571 21.6117 11.1739 21.3862C10.9788 21.8578 10.2831 22.0745 8.9716 22.483C7.39216 22.975 6.60244 23.221 6.17574 22.8039L6.15959 22.7878C5.74253 22.3611 5.98851 21.5713 6.48047 19.9919C6.88898 18.6804 7.10566 17.9847 7.57724 17.7896C7.35177 17.4064 7.40356 16.905 7.73262 16.576L19.1747 5.13387Z" fill="#9E9E9E"/>
</g>
</svg>
