<svg width="16" height="16" viewBox="0 0 16 16" fill="none" xmlns="http://www.w3.org/2000/svg">
<g id="i-chat">
<path id="Subtract" fill-rule="evenodd" clip-rule="evenodd" d="M2 0C0.895431 0 0 0.895428 0 2V10.4444C0 11.549 0.895431 12.4444 2 12.4444H8.2963L12.4444 16V12.4444H14C15.1046 12.4444 16 11.549 16 10.4444V2C16 0.895431 15.1046 0 14 0H2ZM4 4.5C4 4.22386 4.22386 4 4.5 4L11.5 4C11.7761 4 12 4.22386 12 4.5C12 4.77614 11.7761 5 11.5 5L4.5 5C4.22386 5 4 4.77614 4 4.5ZM4.5 7C4.22386 7 4 7.22386 4 7.5C4 7.77614 4.22386 8 4.5 8L9.5 8C9.77614 8 10 7.77614 10 7.5C10 7.22386 9.77614 7 9.5 7L4.5 7Z" fill="#C4C4C4"/>
</g>
</svg>
