<svg width="154" height="44" viewBox="0 0 154 44" fill="none" xmlns="http://www.w3.org/2000/svg">
<path d="M7.002 13.59C8.082 13.59 9.06 13.794 9.936 14.202C10.812 14.61 11.508 15.18 12.024 15.912C12.552 16.632 12.84 17.454 12.888 18.378H9.504C9.408 17.73 9.126 17.226 8.658 16.866C8.19 16.506 7.566 16.326 6.786 16.326C6.042 16.326 5.46 16.464 5.04 16.74C4.62 17.004 4.41 17.364 4.41 17.82C4.41 18.18 4.542 18.474 4.806 18.702C5.07 18.93 5.472 19.134 6.012 19.314C6.564 19.482 7.362 19.674 8.406 19.89C10.026 20.226 11.184 20.784 11.88 21.564C12.588 22.332 12.942 23.298 12.942 24.462C12.942 25.374 12.678 26.172 12.15 26.856C11.634 27.54 10.926 28.062 10.026 28.422C9.126 28.794 8.124 28.98 7.02 28.98C5.82 28.98 4.74 28.77 3.78 28.35C2.832 27.942 2.076 27.354 1.512 26.586C0.96 25.818 0.66 24.918 0.612 23.886H3.978C4.074 24.594 4.41 25.164 4.986 25.596C5.574 26.016 6.33 26.226 7.254 26.226C7.926 26.226 8.478 26.076 8.91 25.776C9.354 25.476 9.576 25.086 9.576 24.606C9.576 24.222 9.456 23.904 9.216 23.652C8.988 23.4 8.616 23.184 8.1 23.004C7.596 22.824 6.888 22.65 5.976 22.482C4.332 22.17 3.102 21.648 2.286 20.916C1.47 20.184 1.062 19.152 1.062 17.82C1.062 16.956 1.32 16.206 1.836 15.57C2.364 14.934 3.078 14.448 3.978 14.112C4.878 13.764 5.886 13.59 7.002 13.59ZM19.3663 28.872C18.3703 28.872 17.4823 28.632 16.7023 28.152C15.9223 27.684 15.3163 27.03 14.8843 26.19C14.4523 25.35 14.2363 24.402 14.2363 23.346C14.2363 22.29 14.4523 21.342 14.8843 20.502C15.3163 19.662 15.9223 19.008 16.7023 18.54C17.4823 18.06 18.3703 17.82 19.3663 17.82C20.7223 17.82 21.7303 18.264 22.3903 19.152V18.072H25.5943V28.62H22.3903V27.54C21.7303 28.428 20.7223 28.872 19.3663 28.872ZM19.8703 26.136C20.6503 26.136 21.2743 25.878 21.7423 25.362C22.2103 24.834 22.4443 24.162 22.4443 23.346C22.4443 22.53 22.2103 21.864 21.7423 21.348C21.2743 20.82 20.6503 20.556 19.8703 20.556C19.1143 20.556 18.5083 20.82 18.0523 21.348C17.5963 21.864 17.3683 22.53 17.3683 23.346C17.3683 24.162 17.5963 24.834 18.0523 25.362C18.5083 25.878 19.1143 26.136 19.8703 26.136ZM28.0126 18.072H31.2166V19.152C31.8766 18.264 32.8606 17.82 34.1686 17.82C34.9846 17.82 35.7046 18.012 36.3286 18.396C36.9526 18.768 37.4326 19.308 37.7686 20.016C38.1166 20.724 38.2906 21.558 38.2906 22.518V28.62H35.0866V23.058C35.0866 22.254 34.9246 21.642 34.6006 21.222C34.2886 20.79 33.8326 20.574 33.2326 20.574C32.6086 20.574 32.1166 20.808 31.7566 21.276C31.3966 21.744 31.2166 22.386 31.2166 23.202V28.62H28.0126V18.072ZM45.048 28.872C44.052 28.872 43.164 28.632 42.384 28.152C41.604 27.684 40.998 27.03 40.566 26.19C40.134 25.35 39.918 24.402 39.918 23.346C39.918 22.29 40.134 21.342 40.566 20.502C40.998 19.662 41.604 19.008 42.384 18.54C43.164 18.06 44.052 17.82 45.048 17.82C46.404 17.82 47.412 18.264 48.072 19.152V13.5H51.276V28.62H48.072V27.54C47.412 28.428 46.404 28.872 45.048 28.872ZM45.552 26.136C46.332 26.136 46.956 25.878 47.424 25.362C47.892 24.834 48.126 24.162 48.126 23.346C48.126 22.53 47.892 21.864 47.424 21.348C46.956 20.82 46.332 20.556 45.552 20.556C44.796 20.556 44.19 20.82 43.734 21.348C43.278 21.864 43.05 22.53 43.05 23.346C43.05 24.162 43.278 24.834 43.734 25.362C44.19 25.878 44.796 26.136 45.552 26.136ZM58.2843 28.872C57.2883 28.872 56.4003 28.632 55.6203 28.152C54.8403 27.684 54.2343 27.03 53.8023 26.19C53.3703 25.35 53.1543 24.402 53.1543 23.346C53.1543 22.29 53.3703 21.342 53.8023 20.502C54.2343 19.662 54.8403 19.008 55.6203 18.54C56.4003 18.06 57.2883 17.82 58.2843 17.82C59.6403 17.82 60.6483 18.264 61.3083 19.152V18.072H64.5123V28.62H61.3083V27.54C60.6483 28.428 59.6403 28.872 58.2843 28.872ZM58.7883 26.136C59.5683 26.136 60.1923 25.878 60.6603 25.362C61.1283 24.834 61.3623 24.162 61.3623 23.346C61.3623 22.53 61.1283 21.864 60.6603 21.348C60.1923 20.82 59.5683 20.556 58.7883 20.556C58.0323 20.556 57.4263 20.82 56.9703 21.348C56.5143 21.864 56.2863 22.53 56.2863 23.346C56.2863 24.162 56.5143 24.834 56.9703 25.362C57.4263 25.878 58.0323 26.136 58.7883 26.136ZM70.1346 28.62H66.9306V13.5H70.1346V28.62Z" fill="#FF9191"/>
</svg>
